<svg width="16" height="88" viewBox="0 0 16 88" fill="none" xmlns="http://www.w3.org/2000/svg">
<g id="globalnav_search_image__cbllq1gkias2_large.svg" clip-path="url(#clip0_1_975)">
<path id="Vector" d="M14.1987 27.3428L10.6987 23.8428C11.5804 22.763 12.0136 21.3857 11.9086 19.9956C11.8037 18.6055 11.1687 17.3088 10.1349 16.3736C9.10114 15.4383 7.74754 14.936 6.3539 14.9704C4.96025 15.0048 3.63309 15.5733 2.64671 16.5584C1.66032 17.5436 1.0901 18.87 1.0539 20.2636C1.0177 21.6572 1.51828 23.0114 2.4522 24.0464C3.38611 25.0814 4.68196 25.7181 6.07194 25.8248C7.46192 25.9315 8.83977 25.5001 9.92073 24.6198L13.4207 28.1198C13.4718 28.1709 13.5325 28.2114 13.5992 28.2391C13.6659 28.2667 13.7375 28.281 13.8097 28.281C13.882 28.281 13.9535 28.2667 14.0203 28.2391C14.087 28.2114 14.1476 28.1709 14.1987 28.1198C14.2498 28.0687 14.2903 28.0081 14.318 27.9414C14.3456 27.8746 14.3599 27.8031 14.3599 27.7308C14.3599 27.6586 14.3456 27.5871 14.318 27.5203C14.2903 27.4536 14.2498 27.3929 14.1987 27.3418V27.3428ZM2.17773 20.4178C2.17793 19.5637 2.4314 18.7287 2.9061 18.0186C3.3808 17.3085 4.0554 16.7551 4.84461 16.4283C5.63382 16.1016 6.5022 16.0162 7.33994 16.1829C8.17767 16.3497 8.94715 16.7611 9.55108 17.3652C10.155 17.9693 10.5662 18.7388 10.7328 19.5766C10.8994 20.4144 10.8138 21.2827 10.4869 22.0719C10.1599 22.861 9.60637 23.5355 8.89613 24.01C8.1859 24.4846 7.3509 24.7378 6.49673 24.7378C5.35141 24.7368 4.25332 24.2813 3.44355 23.4713C2.63378 22.6613 2.17852 21.5632 2.17773 20.4178Z" fill="white"/>
<path id="Vector_2" d="M14.1987 71.5928L10.6987 68.0928C11.5804 67.013 12.0136 65.6357 11.9086 64.2456C11.8037 62.8555 11.1687 61.5588 10.1349 60.6236C9.10114 59.6883 7.74754 59.186 6.3539 59.2204C4.96025 59.2548 3.63309 59.8233 2.64671 60.8084C1.66032 61.7936 1.0901 63.12 1.0539 64.5136C1.0177 65.9072 1.51828 67.2614 2.4522 68.2964C3.38611 69.3314 4.68196 69.9681 6.07194 70.0748C7.46192 70.1815 8.83977 69.7501 9.92073 68.8698L13.4207 72.3698C13.5239 72.473 13.6638 72.531 13.8097 72.531C13.9556 72.531 14.0956 72.473 14.1987 72.3698C14.3019 72.2667 14.3599 72.1267 14.3599 71.9808C14.3599 71.8349 14.3019 71.695 14.1987 71.5918V71.5928ZM2.17773 64.6678C2.17793 63.8137 2.4314 62.9787 2.9061 62.2686C3.3808 61.5585 4.0554 61.0051 4.84461 60.6783C5.63382 60.3516 6.5022 60.2662 7.33994 60.4329C8.17767 60.5997 8.94715 61.0111 9.55108 61.6152C10.155 62.2193 10.5662 62.9888 10.7328 63.8266C10.8994 64.6644 10.8138 65.5327 10.4869 66.3219C10.1599 67.111 9.60637 67.7855 8.89613 68.26C8.1859 68.7346 7.3509 68.9878 6.49673 68.9878C5.35141 68.9868 4.25332 68.5313 3.44355 67.7213C2.63378 66.9114 2.17852 65.8132 2.17773 64.6678Z" fill="#86868B"/>
</g>
<defs>
<clipPath id="clip0_1_975">
<rect width="15" height="88" fill="white" transform="translate(0.21875)"/>
</clipPath>
</defs>
</svg>
